<?xml version="1.0" encoding="UTF-8"?>
<svg id="Layer_1" data-name="Layer 1" xmlns="http://www.w3.org/2000/svg" version="1.1" xmlns:serif="http://www.serif.com/" viewBox="0 0 70.3 70.2">
  <defs>
    <style>
      .cls-1 {
        stroke-width: .5px;
      }

      .cls-1, .cls-2 {
        fill: #fff;
        stroke: #000;
        stroke-miterlimit: 10;
      }

      .cls-2 {
        stroke-width: .8px;
      }
    </style>
  </defs>
  <path class="cls-1" d="M.2,35.1c0,19.3,15.6,34.9,34.9,34.9s34.9-15.6,34.9-34.9S54.5.2,35.2.2.2,15.9.2,35.1"/>
  <path class="cls-1" d="M30,6.8c-.7.8-1.7,1.6-2.8,2.4-3.2,2.3-7.4,4-10.8,4.1-4.5.2-7.5,3.9-6.7,8.3s-.7,11-3.3,14.6-1.6,8.3,2.4,10.4c3.9,2.1,8.1,7.4,9.3,11.7s5.5,6.4,9.6,4.6,10.8-1.8,14.9,0,8.4-.3,9.6-4.6c1.2-4.3,5.4-9.6,9.3-11.7s5-6.8,2.4-10.4-4.1-10.2-3.3-14.6-2.2-8.1-6.6-8.3c-4.5-.2-10.5-3.1-13.4-6.5-1.5-1.7-3.4-2.5-5.3-2.5s-3.9.9-5.3,2.5"/>
  <path class="cls-2" d="M35.2,32.1V4.3"/>
</svg>