<?xml version="1.0" encoding="UTF-8"?>
<svg id="Layer_1" data-name="Layer 1" xmlns="http://www.w3.org/2000/svg" version="1.1" xmlns:serif="http://www.serif.com/" viewBox="0 0 33.9 33.9">
  <defs>
    <style>
      .cls-1 {
        fill: none;
      }

      .cls-1, .cls-2 {
        stroke: #000;
        stroke-miterlimit: 10;
      }

      .cls-2 {
        fill: #fff;
        stroke-width: .5px;
      }
    </style>
  </defs>
  <path class="cls-2" d="M26.8,3.5c-.4-.4-1.1,0-1.4,0s-1.5.4-3.4-.4c-1.3-.6-1.8-1.2-2.1-1.7-.2-.3-.3-.5-.4-.6-.2-.2-.8-.2-.8-.2h-4.4c-.6,0-.8.7-1,1-.2.2-.8,1.4-2.7,2.1-1.9.8-2.8,0-3.4,0s-.7.4-.7.4l-2.8,2.8-.2.3c-.4.4,0,1.1,0,1.4s.4,1.5-.4,3.4c-.8,1.9-1.9,2-2.3,2.5-.2.2-.2.8-.2.8v4.3c0,.6.7.8,1,1,.2.2,1.4.8,2.1,2.7.8,1.9,0,2.8,0,3.4s.4.7.4.7l2.8,2.8.3.2c.4.4,1.1,0,1.4,0s1.5-.4,3.4.4c1.3.6,1.8,1.2,2.1,1.7.2.3.3.5.4.6.2.2.8.2.8.2h4.3c.6,0,.8-.7,1-1,.2-.2.8-1.4,2.7-2.1,1.9-.8,2.8,0,3.4,0s.7-.4.7-.4l2.8-2.8.2-.3c.4-.4,0-1.1,0-1.4s-.4-1.5.4-3.4,1.9-2,2.3-2.5c.2-.2.2-.8.2-.8v-4.4c0-.6-.7-.8-1-1-.2-.2-1.4-.8-2.1-2.7-.8-1.9,0-2.8,0-3.4s-.4-.7-.4-.7l-3.1-3"/>
  <path class="cls-1" d="M17,13.9V.4"/>
</svg>